<svg xmlns="http://www.w3.org/2000/svg" width="76" height="61.353" viewBox="0 0 76 61.353"><defs><style>.a{fill:rgba(255,170,0,0.25);}</style></defs><g transform="translate(-91.248 -123)"><g transform="translate(91.248 123)"><g transform="translate(0)"><path class="a" d="M116.324,153.912h-7c.652-11.172,6.1-13.016,10.267-13.4a2.306,2.306,0,0,0,2.1-2.3V125.306a2.306,2.306,0,0,0-2.436-2.3c-9.245.52-16.321,3.725-21.032,9.526-4.627,5.7-6.973,13.966-6.973,24.578v19.4a7.86,7.86,0,0,0,7.851,7.851h17.225a7.859,7.859,0,0,0,7.85-7.851V161.763A7.86,7.86,0,0,0,116.324,153.912Zm3.238,22.59a3.241,3.241,0,0,1-3.238,3.238H99.1a3.241,3.241,0,0,1-3.238-3.238v-19.4c0-9.525,2-16.816,5.941-21.669,3.5-4.314,8.516-6.818,15.274-7.618v8.412c-6.087,1.255-12.43,5.936-12.43,19.988a2.307,2.307,0,0,0,2.307,2.307h9.371a3.241,3.241,0,0,1,3.238,3.238Z" transform="translate(-91.248 -123)"/></g></g><g transform="translate(134.321 123)"><g transform="translate(0 0)"><path class="a" d="M303.072,153.913h-7c.652-11.171,6.1-13.016,10.267-13.4a2.306,2.306,0,0,0,2.1-2.3V125.307A2.306,2.306,0,0,0,306,123c-9.245.52-16.321,3.725-21.032,9.526-4.627,5.7-6.973,13.966-6.973,24.578v.8a2.307,2.307,0,1,0,4.613,0v-.8c0-9.525,2-16.816,5.94-21.669,3.5-4.314,8.516-6.818,15.274-7.618v8.411c-6.087,1.255-12.43,5.936-12.43,19.988a2.307,2.307,0,0,0,2.307,2.307h9.371a3.241,3.241,0,0,1,3.238,3.238V176.5a3.241,3.241,0,0,1-3.238,3.238H285.847a3.241,3.241,0,0,1-3.238-3.238v-1.26a2.307,2.307,0,0,0-4.613,0v1.26a7.86,7.86,0,0,0,7.851,7.851h17.225a7.86,7.86,0,0,0,7.851-7.851V161.764A7.86,7.86,0,0,0,303.072,153.913Z" transform="translate(-277.996 -123.001)"/></g></g><g transform="translate(134.322 163.729)"><g transform="translate(0)"><path class="a" d="M280.3,299.583A2.307,2.307,0,0,0,278,301.889v.1a2.307,2.307,0,1,0,4.613,0v-.1A2.307,2.307,0,0,0,280.3,299.583Z" transform="translate(-277.997 -299.583)"/></g></g></g></svg>