<svg xmlns="http://www.w3.org/2000/svg" xmlns:xlink="http://www.w3.org/1999/xlink" width="232" height="476" viewBox="0 0 232 476"><defs><style>.a{fill:#fff;}.a,.f{stroke:#707070;}.b,.f{fill:none;}.c{clip-path:url(#a);}.d{opacity:0.25;clip-path:url(#b);}.e{clip-path:url(#c);}</style><clipPath id="a"><rect class="a" width="232" height="476" transform="translate(0 768)"/></clipPath><clipPath id="b"><rect class="a" width="328.441" height="328.441" transform="translate(212.22 831.78) rotate(90)"/></clipPath><clipPath id="c"><rect class="b" width="500" height="456"/></clipPath></defs><g class="c" transform="translate(0 -768)"><g class="d" transform="translate(-738.219 329.905) rotate(-45)"><g class="e" transform="translate(-210 768)"><g transform="translate(-316.5 -954)"><line class="f" x2="490.5" transform="translate(316.5 954.5)"/></g><g transform="translate(-316.5 -946)"><line class="f" x2="490.5" transform="translate(316.5 954.5)"/></g><g transform="translate(-316.5 -938)"><line class="f" x2="490.5" transform="translate(316.5 954.5)"/></g><g transform="translate(-316.5 -930)"><line class="f" x2="490.5" transform="translate(316.5 954.5)"/></g><g transform="translate(-316.5 -922)"><line class="f" x2="490.5" transform="translate(316.5 954.5)"/></g><g transform="translate(-316.5 -914)"><line class="f" x2="490.5" transform="translate(316.5 954.5)"/></g><g transform="translate(-316.5 -906)"><line class="f" x2="490.5" transform="translate(316.5 954.5)"/></g><g transform="translate(-316.5 -898)"><line class="f" x2="490.5" transform="translate(316.5 954.5)"/></g><g transform="translate(-316.5 -890)"><line class="f" x2="490.5" transform="translate(316.5 954.5)"/></g><g transform="translate(-316.5 -882)"><line class="f" x2="490.5" transform="translate(316.5 954.5)"/></g><g transform="translate(-316.5 -874)"><line class="f" x2="490.5" transform="translate(316.5 954.5)"/></g><g transform="translate(-316.5 -866)"><line class="f" x2="490.5" transform="translate(316.5 954.5)"/></g><g transform="translate(-316.5 -858)"><line class="f" x2="490.5" transform="translate(316.5 954.5)"/></g><g transform="translate(-316.5 -850)"><line class="f" x2="490.5" transform="translate(316.5 954.5)"/></g><g transform="translate(-316.5 -842)"><line class="f" x2="490.5" transform="translate(316.5 954.5)"/></g><g transform="translate(-316.5 -834)"><line class="f" x2="490.5" transform="translate(316.5 954.5)"/></g><g transform="translate(-316.5 -826)"><line class="f" x2="490.5" transform="translate(316.5 954.5)"/></g><g transform="translate(-316.5 -818)"><line class="f" x2="490.5" transform="translate(316.5 954.5)"/></g><g transform="translate(-316.5 -810)"><line class="f" x2="490.5" transform="translate(316.5 954.5)"/></g><g transform="translate(-316.5 -802)"><line class="f" x2="490.5" transform="translate(316.5 954.5)"/></g><g transform="translate(-316.5 -794)"><line class="f" x2="490.5" transform="translate(316.5 954.5)"/></g><g transform="translate(-316.5 -786)"><line class="f" x2="490.5" transform="translate(316.5 954.5)"/></g><g transform="translate(-316.5 -778)"><line class="f" x2="490.5" transform="translate(316.5 954.5)"/></g><g transform="translate(-316.5 -770)"><line class="f" x2="490.5" transform="translate(316.5 954.5)"/></g><g transform="translate(-316.5 -762)"><line class="f" x2="490.5" transform="translate(316.5 954.5)"/></g><g transform="translate(-316.5 -754)"><line class="f" x2="490.5" transform="translate(316.5 954.5)"/></g><g transform="translate(-316.5 -746)"><line class="f" x2="490.5" transform="translate(316.5 954.5)"/></g><g transform="translate(-316.5 -738)"><line class="f" x2="490.5" transform="translate(316.5 954.5)"/></g><g transform="translate(-316.5 -730)"><line class="f" x2="490.5" transform="translate(316.5 954.5)"/></g><g transform="translate(-316.5 -722)"><line class="f" x2="490.5" transform="translate(316.5 954.5)"/></g><g transform="translate(-316.5 -714)"><line class="f" x2="490.5" transform="translate(316.5 954.5)"/></g><g transform="translate(-316.5 -706)"><line class="f" x2="490.5" transform="translate(316.5 954.5)"/></g><g transform="translate(-316.5 -698)"><line class="f" x2="490.5" transform="translate(316.5 954.5)"/></g><g transform="translate(-316.5 -690)"><line class="f" x2="490.5" transform="translate(316.5 954.5)"/></g><g transform="translate(-316.5 -682)"><line class="f" x2="490.5" transform="translate(316.5 954.5)"/></g><g transform="translate(-316.5 -674)"><line class="f" x2="490.5" transform="translate(316.5 954.5)"/></g><g transform="translate(-316.5 -666)"><line class="f" x2="490.5" transform="translate(316.5 954.5)"/></g><g transform="translate(-316.5 -658)"><line class="f" x2="490.5" transform="translate(316.5 954.5)"/></g><g transform="translate(-316.5 -650)"><line class="f" x2="490.5" transform="translate(316.5 954.5)"/></g><g transform="translate(-316.5 -642)"><line class="f" x2="490.5" transform="translate(316.5 954.5)"/></g><g transform="translate(-316.5 -634)"><line class="f" x2="490.5" transform="translate(316.5 954.5)"/></g><g transform="translate(-316.5 -626)"><line class="f" x2="490.5" transform="translate(316.5 954.5)"/></g><g transform="translate(-316.5 -618)"><line class="f" x2="490.5" transform="translate(316.5 954.5)"/></g><g transform="translate(-316.5 -610)"><line class="f" x2="490.5" transform="translate(316.5 954.5)"/></g><g transform="translate(-316.5 -602)"><line class="f" x2="490.5" transform="translate(316.5 954.5)"/></g><g transform="translate(-316.5 -594)"><line class="f" x2="490.5" transform="translate(316.5 954.5)"/></g><g transform="translate(-316.5 -586)"><line class="f" x2="490.5" transform="translate(316.5 954.5)"/></g><g transform="translate(-316.5 -578)"><line class="f" x2="490.5" transform="translate(316.5 954.5)"/></g><g transform="translate(-316.5 -570)"><line class="f" x2="490.5" transform="translate(316.5 954.5)"/></g><g transform="translate(-316.5 -562)"><line class="f" x2="490.5" transform="translate(316.5 954.5)"/></g><g transform="translate(-316.5 -554)"><line class="f" x2="490.5" transform="translate(316.5 954.5)"/></g><g transform="translate(-316.5 -546)"><line class="f" x2="490.5" transform="translate(316.5 954.5)"/></g><g transform="translate(-316.5 -538)"><line class="f" x2="490.5" transform="translate(316.5 954.5)"/></g><g transform="translate(-316.5 -530)"><line class="f" x2="490.5" transform="translate(316.5 954.5)"/></g><g transform="translate(-316.5 -522)"><line class="f" x2="490.5" transform="translate(316.5 954.5)"/></g><g transform="translate(-316.5 -514)"><line class="f" x2="490.5" transform="translate(316.5 954.5)"/></g><g transform="translate(-316.5 -506)"><line class="f" x2="490.5" transform="translate(316.5 954.5)"/></g></g></g></g></svg>