<svg xmlns="http://www.w3.org/2000/svg" width="31" height="31" viewBox="0 0 31 31"><defs><style>.a{fill:#fff;}.b{fill:none;}</style></defs><g transform="translate(-618 -4735)"><g transform="translate(621 4738)"><path class="a" d="M20.349,3.683H17.138A4.593,4.593,0,0,0,12.6,8.323V11.1H10.063a.483.483,0,0,0-.477.488v3.757a.483.483,0,0,0,.477.488H12.6v8.193H1.431a.483.483,0,0,1-.477-.488V1.465A.483.483,0,0,1,1.431.977h.954A.483.483,0,0,0,2.862.488.483.483,0,0,0,2.385,0H1.431A1.45,1.45,0,0,0,0,1.465v22.07A1.45,1.45,0,0,0,1.431,25h11.65a.483.483,0,0,0,.477-.488V15.342a.483.483,0,0,0-.477-.488H10.54v-2.78h2.541a.483.483,0,0,0,.477-.488V8.323a3.627,3.627,0,0,1,3.58-3.664h2.734v2.78H17.138a.886.886,0,0,0-.864.884v3.262a.483.483,0,0,0,.477.488h3.054l-.357,2.78h-2.7a.483.483,0,0,0-.477.488v9.169a.483.483,0,0,0,.477.488h1.471a.488.488,0,0,0,0-.977h-.994V15.831h2.638a.481.481,0,0,0,.473-.425l.483-3.757a.5.5,0,0,0-.114-.385.472.472,0,0,0-.359-.166H17.229V8.416h3.121a.483.483,0,0,0,.477-.488V4.171A.483.483,0,0,0,20.349,3.683Z"/><path class="a" d="M136.954,0H120.468A.479.479,0,0,0,120,.488a.479.479,0,0,0,.468.488h16.486a.479.479,0,0,1,.468.488v22.07a.479.479,0,0,1-.468.488h-.937a.489.489,0,0,0,0,.977h.937a1.437,1.437,0,0,0,1.405-1.465V1.465A1.437,1.437,0,0,0,136.954,0Z" transform="translate(-113.359)"/><path class="a" d="M412.554,492h0a.553.553,0,1,0,.554.553A.553.553,0,0,0,412.553,492Z" transform="translate(-392.141 -468.107)"/><path class="a" d="M80.554,1.107a.553.553,0,1,0,0-1.107h0a.553.553,0,0,0,0,1.107Z" transform="translate(-75.966)"/></g><rect class="b" width="31" height="31" transform="translate(618 4735)"/></g></svg>