<svg xmlns="http://www.w3.org/2000/svg" width="31" height="31" viewBox="0 0 31 31"><defs><style>.a{fill:#fff;}.b{fill:none;}</style></defs><g transform="translate(-673 -4735)"><path class="a" d="M21.1,33.17h-.515c-1.893,0-3.646-.051-5.358-.155a7.125,7.125,0,0,1-4.107-1.552,6.567,6.567,0,0,1-2.2-3.564,16.451,16.451,0,0,1-.372-3.909c-.012-.865-.026-2.005-.029-3.153s.017-2.29.029-3.155a16.45,16.45,0,0,1,.372-3.909,6.567,6.567,0,0,1,2.2-3.564,7.125,7.125,0,0,1,4.108-1.552c1.715-.1,3.469-.155,5.363-.155h.495c1.909,0,3.671.051,5.385.155a7.125,7.125,0,0,1,4.107,1.552,6.566,6.566,0,0,1,2.2,3.564,16.448,16.448,0,0,1,.372,3.909c.013.928.026,2.029.029,3.153s-.016,2.227-.029,3.155a16.446,16.446,0,0,1-.372,3.909,6.566,6.566,0,0,1-2.2,3.564,7.125,7.125,0,0,1-4.107,1.552C24.755,33.119,23,33.17,21.1,33.17ZM20.6,9.649c-1.878,0-3.612.05-5.3.153a5.907,5.907,0,0,0-3.453,1.3,5.447,5.447,0,0,0-1.817,2.959A15.584,15.584,0,0,0,9.688,17.7c-.013.924-.026,2.02-.029,3.14s.016,2.213.029,3.137a15.581,15.581,0,0,0,.336,3.641,5.446,5.446,0,0,0,1.817,2.959,5.907,5.907,0,0,0,3.453,1.3c1.69.1,3.42.153,5.289.153H21.1c1.877,0,3.611-.05,5.3-.153a5.906,5.906,0,0,0,3.453-1.3,5.447,5.447,0,0,0,1.817-2.959,15.584,15.584,0,0,0,.336-3.641c.013-.923.026-2.018.029-3.137s-.016-2.216-.029-3.139a15.587,15.587,0,0,0-.336-3.641A5.447,5.447,0,0,0,29.852,11.1,5.907,5.907,0,0,0,26.4,9.8c-1.689-.1-3.428-.153-5.315-.153H20.6Zm.2,16.993A5.805,5.805,0,1,1,26.6,20.836,5.812,5.812,0,0,1,20.8,26.642Zm0-10.465a4.66,4.66,0,1,0,4.66,4.66A4.665,4.665,0,0,0,20.8,16.177Zm6.927-1a1.071,1.071,0,1,1,1.071-1.071A1.072,1.072,0,0,1,27.724,15.18Z" transform="translate(667.486 4729.497)"/><rect class="b" width="31" height="31" transform="translate(673 4735)"/></g></svg>