<svg xmlns="http://www.w3.org/2000/svg" width="48.015" height="48.018" viewBox="0 0 48.015 48.018"><defs><style>.a{fill:#fa0;}.b{fill:#707070;}</style></defs><g transform="translate(-8.098 -8)"><path class="a" d="M143.6,120.872a19.357,19.357,0,1,0-14.406,21.239,3.632,3.632,0,0,0-.928-7.144,3.1,3.1,0,1,1,0-6.2h8.411a6.959,6.959,0,0,0,6.923-7.9Zm-33.482,1.746a3.485,3.485,0,1,1,4.806,1.094l0,0A3.485,3.485,0,0,1,110.117,122.619Zm7.366,10.7a3.485,3.485,0,1,1,.552-4.9,3.485,3.485,0,0,1-.552,4.9Zm3.381-17.3a3.485,3.485,0,1,1,1.626-4.653h0A3.485,3.485,0,0,1,120.864,116.023Zm7.057,0a3.485,3.485,0,1,1,4.652-1.628h0a3.485,3.485,0,0,1-4.652,1.626Zm10.748,6.6a3.485,3.485,0,1,1-1.1-4.8l0,0a3.485,3.485,0,0,1,1.1,4.8Z" transform="translate(-87.55 -86.695)"/><path class="b" d="M41.856,8A4.957,4.957,0,0,0,38.51,9.294L18.769,27.288a1.025,1.025,0,0,0-.183.251l-2.415,5.313a5.412,5.412,0,0,0-3.479,1.573C9.765,37.353,10.257,43.463,8.315,45.4a.774.774,0,0,0,1.1,1.1c1.936-1.936,8.048-1.45,10.975-4.377a5.412,5.412,0,0,0,1.574-3.479l5.311-2.414h.006a1,1,0,0,0,.247-.18L45.518,16.3A4.961,4.961,0,0,0,41.856,8ZM19.29,41.025c-1.883,1.883-5.731,2.075-8.5,2.994.909-2.735,1.108-6.61,2.994-8.5a3.891,3.891,0,1,1,5.5,5.5ZM21.821,37a5.391,5.391,0,0,0-4.012-4.012L19.534,29.2l6.08,6.08ZM44.373,15.259,26.926,34.4l-6.513-6.513L39.553,10.439a3.412,3.412,0,0,1,4.82,4.82Z"/></g></svg>