<svg xmlns="http://www.w3.org/2000/svg" width="316.657" height="162.598" viewBox="0 0 316.657 162.598"><defs><style>.a{fill:#fff;}</style></defs><g transform="translate(-525.172 -4450)"><path class="a" d="M212.953,46.623c-3.065,3.144-6.13,6.287-9.48,9.727,3.273,0,6.183-.141,9.074.033,4.114.249,8.215.7,12.317,1.124a2.533,2.533,0,0,1,1.975,2.906c-.112,1.288-.633,1.753-2.214,1.7-4.563-.153-8.636,1.647-12.708,3.279-5.983,2.4-11.823,5.148-17.812,7.523-2.667,1.057-5.558,1.534-8.331,2.328-1.471.422-1.518.749-1.163,2.275a9.542,9.542,0,0,1,.365,3.551,23.091,23.091,0,0,0,.482,8.844c.49,2.161,1.337,4.242,2.024,6.358.106.326.22.653.316.984.484,1.659.261,2.842-.637,3.432a3.711,3.711,0,0,1-3.769-.484,15.083,15.083,0,0,1-1.877-1.767c-2.4-2.7-4.74-5.446-7.16-8.123-1.147-1.273-1.177-1.192-2.424-.027-6.887,6.438-13.814,12.835-20.669,19.31-1.606,1.518-2.875,3.4-4.5,4.9a9.215,9.215,0,0,1-3.42,1.832c-.945.3-1.545-.657-1.012-1.545a6.978,6.978,0,0,1,1.545-1.708c3.208-2.663,6.548-5.175,9.652-7.952,5.583-5,11.029-10.154,16.536-15.237,1.755-1.62,3.049-3.367,2.2-5.977A8.078,8.078,0,0,1,172,81.469a3.117,3.117,0,0,0-1.5-2.938c-.8-.488-1.228-1.361-.467-2.028a3.337,3.337,0,0,1,2.157-.282c.429.033.69.3,1.308.122a42.84,42.84,0,0,1,5.969-1.014,6.353,6.353,0,0,1,1.455.275c2.443.3,3.036-2.047,4.3-3.253,4.046-3.863,7.844-7.989,11.733-12.019a2.7,2.7,0,0,0,.316-.512l-.151-.412-35.432,5.954.129-.822q-4.359,1.24-8.693,2.471a2.779,2.779,0,0,1-1.128.226,4.292,4.292,0,0,1-1.141-.577c.245-.308.431-.792.743-.9a47.063,47.063,0,0,1,5.2-1.543c2.961-.624,5.96-1.071,8.94-1.62,1.506-.275,3-.649,4.506-.908,3.585-.62,7.17-1.245,10.77-1.781,5.9-.879,11.8-1.694,17.706-2.524a3.82,3.82,0,0,0,2.365-1.067c3.144-3.063,6.387-6.028,9.65-8.962a7.983,7.983,0,0,1,2.077-.977ZM186.944,73.158l.182.355c1.465-.451,2.959-.826,4.387-1.373,3.52-1.345,7.005-2.787,10.523-4.144.859-.331,1.855-.337,2.675-.73,2.059-.99,4.061-2.1,6.069-3.189,1.99-1.086,3.993-2.153,5.916-3.346a13.79,13.79,0,0,0,2.1-2.124,66.523,66.523,0,0,0-17.712.665,3.341,3.341,0,0,0-1.649.871c-1.628,1.592-3.189,3.253-4.763,4.9Q190.8,69.092,186.944,73.158Zm-7.821,3.277h-4.944A4.879,4.879,0,0,0,179.123,76.435Z" transform="translate(595.419 4456.045)"/><path class="a" d="M176.482,47.36a25.839,25.839,0,0,1-2.345,3.11q-6.474,6.412-13.072,12.7c-7.293,6.958-14.678,13.821-21.913,20.838-3.52,3.416-6.791,7.087-10.154,10.662a1.289,1.289,0,0,0-.378,1.006c.071.233.588.4.933.465,1.775.329,3.548.716,5.342.867a5.106,5.106,0,0,0,2.651-.543,4.3,4.3,0,0,1,3.679-.333l-.58.916,1.583.127a2.782,2.782,0,0,1-.041,3.912c-1.237,1.124-3.771,1.184-4.669-.21a4.809,4.809,0,0,0-4.369-2.175c-2.271-.061-4.55-.006-6.815.145a3.216,3.216,0,0,0-1.767.955c-2.8,2.669-5.5,5.43-8.311,8.083-2.383,2.251-4.875,4.387-7.3,6.6a10.1,10.1,0,0,0-1.151,1.39,28.767,28.767,0,0,1-7.232,6.452c-4.344,2.879-8.26,6.4-12.421,9.566-3.147,2.4-6.375,4.683-9.6,6.977a3.9,3.9,0,0,0-1.7,2.422,6.982,6.982,0,0,1-3.987,5.173c-.553.237-.961.961-1.5,1.045a5.008,5.008,0,0,1-2.224-.335c-.988-.326-1.926-.8-2.812-1.179-.692-2.7.361-4.748,2.336-6.513a6.022,6.022,0,0,1,4.308-1.863,7.1,7.1,0,0,0,4.475-1.265A185.012,185.012,0,0,0,94.126,123.1c5.707-5.052,11.566-9.935,17.277-14.986,3.065-2.708,5.96-5.607,8.923-8.431a14.557,14.557,0,0,0,.957-1.12,58.429,58.429,0,0,0-6.43.039c-5.944.675-11.886,1.422-17.8,2.345a96.028,96.028,0,0,0-11.1,2.355c-5.548,1.555-11.033,3.338-16.5,5.152-3.553,1.179-7.024,2.612-10.55,3.879a14.829,14.829,0,0,1-2.349.447l-.108-.451a20.332,20.332,0,0,1,2.736-1.5c5.146-1.9,10.262-3.916,15.5-5.542,5.828-1.812,11.739-3.4,17.681-4.8a114.477,114.477,0,0,1,12.568-2.118c5.169-.618,10.37-1.175,15.567-1.281a7.2,7.2,0,0,0,5.2-2.359c6.87-6.393,13.882-12.633,20.742-19.036,6.738-6.285,13.386-12.666,20.012-19.071,3.124-3.02,6.1-6.193,9.148-9.291a2.515,2.515,0,0,1,.508-.318Z" transform="translate(468.729 4465.06)"/><path class="a" d="M143.179,37.487c-.216,5.889-4.04,10.2-10.1,10.329A12.149,12.149,0,0,1,120.556,36.3c-.326-5.94,5.481-11.094,11.492-10.15,1.169.184,2.406.131,3.334,1.271.433.533,1.437.651,2.21.841a4.258,4.258,0,0,1,2.434,2.479c.177.622.592,1.543,1.055,1.649,1.357.308,1.434,1.386,1.681,2.312A20.23,20.23,0,0,1,143.179,37.487Zm-9.342-4.575a10.694,10.694,0,0,0-1.092.61c-.029.02.137.524.292.577,1.171.406,2.353.79,3.553,1.1.229.059.551-.257.83-.4-.169-.269-.277-.684-.518-.786C135.925,33.6,134.9,33.285,133.838,32.912Zm3.3,6.993c1.447.008,2-.451,2.318-1.99Zm-2.059-1.414.394.3c.773-.239,1.445-.551.861-1.8Z" transform="translate(554.565 4423.965)"/><path class="a" d="M149.091,75.2a7.27,7.27,0,0,0-1.306-.275c-1.077-.027-2.157-.006-3.232.039a4.379,4.379,0,0,0-3.961,2.23,7.906,7.906,0,0,1-3.548,3.073c-2.336,1.175-4.51,2.689-6.875,3.8a45.373,45.373,0,0,1-6.764,2.492c-2.3.657-3.861-.728-5.118-2.44a27.9,27.9,0,0,1-1.685-2.749c-.8-1.41-1.006-1.459-2.277-.453a1.931,1.931,0,0,1-1.063.463l1.535-1.7c-2.561,0-4.779.006-6.995,0a5.417,5.417,0,0,1-1.918-.127c-.518-.208-.888-.792-1.324-1.21.42-.369.81-1.006,1.267-1.061a38.261,38.261,0,0,1,5-.245c1.371.018,2.74.224,4.11.365,1.549.161,3.02.057,4.077-1.057.449.229.8.559,1.141.557a13.839,13.839,0,0,0,9.819-3.512,18.877,18.877,0,0,1,2.281-1.9c1.936-1.3,2.194-1.212,3.748-.131a3.447,3.447,0,0,1,.773,3.7,4.632,4.632,0,0,0-.475,1.188,5.444,5.444,0,0,0,.3,1.4,4.313,4.313,0,0,0,1.13-.665c.541-.606.886-1.4,1.473-1.947a6.987,6.987,0,0,1,4.626-2.049c2.52-.057,5.058-.392,7.493.747.4.188,1.275-.21,1.7-.592,1.665-1.492,3.236-3.089,4.848-4.642.606-.586,1.406-1.581,2.118-.835.806.847-.192,1.7-.863,2.359-2.275,2.23-4.575,4.432-6.832,6.679a4.36,4.36,0,0,0-.608,1.2,6.051,6.051,0,0,0,1.284.345c.99.045,1.983-.029,2.973.006a3.075,3.075,0,0,1,.9.339c-.167.318-.255.771-.52.926a6.247,6.247,0,0,1-1.675.616c-1.71.42-3.422.837-5.148,1.175a6.036,6.036,0,0,1-1.761-.069c-.492-.053-.971-.239-1.461-.267-1.208-.075-1.816-.92-1.132-1.92a14.217,14.217,0,0,1,4.018-3.442Z" transform="translate(535.288 4480.132)"/><path class="a" d="M171.8,74.905c1.186-1.165,2.369-2.332,3.563-3.491.363-.355.751-.684,1.316-1.194a20.812,20.812,0,0,1-2.706-.806c-.475-.212-.81-.735-1.208-1.116.622-.351,1.228-.955,1.869-.994a9.84,9.84,0,0,1,2.647.526c1.2.275,2.308.278,3.142-.835a.9.9,0,0,1,.724-.3l-.753,1.3a9.231,9.231,0,0,0,4.938.414c1.816-.508,1.89-.518,2.842,1.039a1.047,1.047,0,0,0,.694.408c2.553.308,5.116.526,7.662.882,3.83.533,7.65,1.153,11.472,1.745.235.037.453.163.665.569-.735,0-1.469.029-2.2,0-5.12-.222-10.239-.41-15.355-.712a3.067,3.067,0,0,0-3.4,2.034,6.079,6.079,0,0,1-5.989,3.724A2.6,2.6,0,0,1,179.1,74.43c.422-1.31,1.075-2.547,1.632-3.834-1.583-.339-3.218-.445-4.748,1.171a27.87,27.87,0,0,1-4.224,3.108Zm15.077-3.477c-1.883.161-3.963,1.053-4.759,2.153a4.82,4.82,0,0,0-.445,1.506,4.213,4.213,0,0,0,1.5.324A4.408,4.408,0,0,0,186.875,71.428Z" transform="translate(626.255 4478.391)"/><path class="a" d="M112.361,102.551c2.524-2.389,5.1-4.726,7.554-7.183,1.941-1.941,3.677-4.085,5.614-6.032,2.6-2.616,5.328-5.105,7.964-7.687,1.741-1.706,3.426-3.467,5.116-5.224,3.993-4.152,7.9-8.387,11.974-12.457,4.136-4.134,8.34-8.207,12.674-12.131,3.691-3.342,7.589-6.46,11.445-9.615a12.551,12.551,0,0,1,2.449-1.247l.239.341a5.716,5.716,0,0,1-.594.657,284.015,284.015,0,0,0-22.607,20.02c-5.3,5.3-10.419,10.766-15.733,16.043-6.244,6.2-12.6,12.288-18.928,18.4-1.951,1.883-3.973,3.7-5.967,5.534-.31.286-.651.539-.975.806Z" transform="translate(546.914 4446.718)"/><path class="a" d="M136.617,71.791c.649.292,1.3.588,1.947.873,1.826.8,2.232,2.412.89,3.912a33.92,33.92,0,0,1-2.589,2.381,6.8,6.8,0,0,1,1.29,1.4c.212.412.276,1.253.029,1.463a2.247,2.247,0,0,1-1.583.222,12.776,12.776,0,0,1-2.4-.624c-.671-.233-1.3-.582-1.951-.882a7.375,7.375,0,0,1,1.21-1.9c1.108-.92,2.44-1.573,3.549-2.494.945-.786.835-1.253-.237-1.843-.637-.349-1.357-.541-2-.875-1.473-.761-1.526-1.724-.051-2.514a51.569,51.569,0,0,1,4.691-2.157c1.469-.606,2.971-1.147,4.487-1.62a2.689,2.689,0,0,1,1.447.147,1.209,1.209,0,0,1-.039.93c-.377.414-.926,1.01-1.363.977-2.759-.2-4.9,1.361-7.291,2.194Z" transform="translate(569.439 4479.249)"/><path class="a" d="M90.309,103.831l32.555-25.468.49.516c-.314.222-.641.426-.941.665-8.323,6.6-16.663,13.186-24.956,19.828-3.081,2.469-6.06,5.065-9.056,7.638-.51.437-.8,1.13-1.31,1.567a3.93,3.93,0,0,1-1.6.8c-.224.053-.835-.437-.812-.618a3.251,3.251,0,0,1,.6-1.543c.933-1.173,1.918-2.314,2.959-3.393C89.146,102.88,89.256,102.921,90.309,103.831Z" transform="translate(507.101 4497.685)"/><path class="a" d="M167.3,79.663c-.6-.422-1.249-.659-1.488-1.11a1.87,1.87,0,0,1,.126-1.537c1.681-2.942,3.4-5.867,5.2-8.736.3-.486,1.065-.686,1.616-1.016.308.561.945,1.181.857,1.673a11.089,11.089,0,0,1-1.179,3.234c-1.13,2.11-2.355,4.175-3.618,6.207A6.967,6.967,0,0,1,167.3,79.663Z" transform="translate(617.026 4479.249)"/><path class="a" d="M186.551,62.815c1.871-2.22,3.728-4.452,5.62-6.652a36.512,36.512,0,0,1,2.985-3.189c.365-.333,1.081-.28,1.639-.4-.076.671.061,1.492-.28,1.975a11.8,11.8,0,0,1-1.975,1.622c-2.5,2.23-4.981,4.487-7.474,6.728a.961.961,0,0,1-.341.116Z" transform="translate(641.64 4459.43)"/><path class="a" d="M193.06,69.267c1.514.027,2.814,1.039,2.838,2.212.033,1.508-1.465,2.763-2.751,2.038a7.474,7.474,0,0,1-2.406-2.683C190.344,70.181,191.756,69.243,193.06,69.267Z" transform="translate(645.93 4481.191)"/><path class="a" d="M124.342,47.715c-1.394.018-2.2-.843-2.224-2.377a2.121,2.121,0,0,1,2-2.232,2.493,2.493,0,0,1,2.573,2.6A2.137,2.137,0,0,1,124.342,47.715Z" transform="translate(555.384 4446.565)"/><path class="a" d="M176.071,70.7c-1.308,1.532-2.647,3.04-3.914,4.61-.886,1.1-1.692,2.261-2.5,3.42-.5.718-1.177,1.186-1.906.667-.243-.171-.124-1.349.21-1.745a10.66,10.66,0,0,1,3.477-3.146c1.222-.586,2.1-1.867,3.171-2.8a12.75,12.75,0,0,1,1.49-.977Z" transform="translate(621.949 4483.512)"/><path class="a" d="M111.413,75.163l-6.154,4.867-.241-.3,6.144-4.887Z" transform="translate(532.912 4488.645)"/><path class="a" d="M176.556,56.175a21.806,21.806,0,0,1,1.894,1.2c.139.1.033.531.039.808-.265,0-.61.118-.782-.006-.569-.414-1.075-.914-1.606-1.381Z" transform="translate(630.767 4463.716)"/></g></svg>